<svg xmlns="http://www.w3.org/2000/svg" viewBox="0 0 226.13 106.32"><defs><style>.cls-1{fill:#17243d;}.cls-2{fill:#fbbf0d;}</style></defs><g id="Layer_2" data-name="Layer 2"><g id="Layer_1-2" data-name="Layer 1"><path class="cls-1" d="M30.28,40.74A7.67,7.67,0,0,0,36,38.4,7.93,7.93,0,0,0,36,27a7.67,7.67,0,0,0-5.69-2.34A7.65,7.65,0,0,0,24.64,27a8,8,0,0,0,5.64,13.71Z"/><path class="cls-1" d="M89.37,97a7.94,7.94,0,0,0-2.22-5.64,7.61,7.61,0,0,0-5.58-2.28,7.36,7.36,0,0,0-5.46,2.34,8.16,8.16,0,0,0,0,11.21,7.29,7.29,0,0,0,5.46,2.28,7.51,7.51,0,0,0,5.58-2.34A7.71,7.71,0,0,0,89.37,97Z"/><path class="cls-1" d="M108.6,97a7.93,7.93,0,0,0-2.21-5.64,7.63,7.63,0,0,0-10.94.06,8.21,8.21,0,0,0,0,11.21,7.63,7.63,0,0,0,10.94-.06A7.82,7.82,0,0,0,108.6,97Z"/><path class="cls-1" d="M226.13,32.72V79.51H63.32q-2.77,26.8-30.48,26.81c-.36,0-.73,0-1.09,0s-.64,0-1,0Q0,106.32,0,73.19c0-.29,0-.58,0-.87s0-.69,0-1.06V52.34H15.37V72.17c0,.35,0,.7,0,1q.48,20.42,15.54,21.09h1.8q15-.66,15.53-21.09c0-.45,0-.91,0-1.38V32.72H63.64V67.39H93.57V32.72H109V67.39H210.76V32.72Z"/><path class="cls-1" d="M206.57,97a7.91,7.91,0,0,0-2.23-5.64,7.57,7.57,0,0,0-5.57-2.28,7.4,7.4,0,0,0-5.48,2.34,8.21,8.21,0,0,0,0,11.21,7.37,7.37,0,0,0,5.48,2.28,7.47,7.47,0,0,0,5.57-2.34A7.68,7.68,0,0,0,206.57,97Z"/><path class="cls-1" d="M225.8,97a7.93,7.93,0,0,0-2.21-5.64,7.63,7.63,0,0,0-10.94.06,8.19,8.19,0,0,0,0,11.21,7.63,7.63,0,0,0,10.94-.06A7.82,7.82,0,0,0,225.8,97Z"/><path class="cls-1" d="M150.22,15.88a7.42,7.42,0,0,0,5.53-2.33A7.77,7.77,0,0,0,158,8a7.65,7.65,0,0,0-2.27-5.62,7.62,7.62,0,0,0-11,0A7.74,7.74,0,0,0,142.49,8a7.64,7.64,0,0,0,2.27,5.59A7.25,7.25,0,0,0,150.22,15.88Z"/><path class="cls-1" d="M169.58,15.88A7.35,7.35,0,0,0,175,13.55,7.82,7.82,0,0,0,177.27,8,7.69,7.69,0,0,0,175,2.34,7.32,7.32,0,0,0,169.58,0a7.17,7.17,0,0,0-5.46,2.34A7.71,7.71,0,0,0,161.84,8a7.61,7.61,0,0,0,2.28,5.59A7.19,7.19,0,0,0,169.58,15.88Z"/><path class="cls-2" d="M171.23,26.19a28.49,28.49,0,0,0-29.08,48.44l-8.51,19.6a7.59,7.59,0,0,0,3.93,10,7.72,7.72,0,0,0,3,.63,7.59,7.59,0,0,0,7-4.57l8.55-19.7a28.11,28.11,0,0,0,3.76.28,28.51,28.51,0,0,0,11.37-54.66Zm.88,31.46a13.36,13.36,0,0,1-12.25,8,13.2,13.2,0,0,1-5.3-1.12,13.34,13.34,0,1,1,17.55-6.92Z"/></g></g></svg>