<svg id="Layer_1" data-name="Layer 1" xmlns="http://www.w3.org/2000/svg" viewBox="0 0 3437.12 2160"><defs><style>.cls-1{fill:#2b84c1;}.cls-2{fill:#3186c2;}.cls-3{fill:#1b559d;}.cls-4{fill:#245ba1;}</style></defs><path class="cls-1" d="M221.9,1211.18c18.29-31.86,35.37-61.88,52.68-91.75Q571.84,607,869.21,94.57c15.53-26.74,31-53.55,46.61-80.21,11.91-20.29,18.51-20.25,30.28,0q125.17,215.63,250.32,431.3,216.7,373.67,433.38,747.46c11,18.93,11,19.05-10.71,19.05-105.1,0-210.17-.23-315.27.34-13.5.07-20.74-4.53-27.34-16Q1109.62,907.87,942.06,619.58c-11-18.9-11.23-19-22.66.64Q753.44,906,587.88,1192.14c-8.25,14.29-16.66,20.7-34.35,20.51-104.42-1.05-208.88-.52-313.3-.56C235.25,1212.13,230.23,1211.64,221.9,1211.18Z"/><path class="cls-1" d="M3437.12,1212.13H3292.8c-63.2,0-126.36-.46-189.53.34-14.71.18-22.78-4-30.4-17.24Q2907.36,908,2740.57,621.46c-3.47-6-7.24-11.8-12.52-20.4-19.73,33.6-38,64.37-56,95.37q-145,250-289.58,500.24c-6.79,11.76-14.22,15.8-27.46,15.72-105.1-.49-210.2-.26-315.3-.3-21.38,0-21.57-.3-10.48-19.35Q2344,650.16,2658.89,107.62q26.68-46,53.28-92c12.71-21.87,19.16-22.14,31.45-.94q206.52,356.19,413,712.43,135.76,234.13,271.56,468.22C3430.67,1199.68,3432.9,1204.21,3437.12,1212.13Z"/><path class="cls-1" d="M1298.81-.24c52.23,0,104.46.53,156.69-.34,14.14-.22,21.91,4.45,28.92,16.56q165.35,286.28,331.48,572.11c1.92,3.35,3.88,6.67,5.62,10.14,6,11.92,10.37,9.58,16.25-.64,29.79-52,60.11-103.7,90.21-155.52q124.21-214,248.09-428.24C2182.56,2.59,2190-.5,2202.28-.46c105.1.45,210.2.22,315.34.26,21.42,0,21.68.3,10.56,19.46q-177.39,306.08-355,612.12-165.92,285.95-331.89,571.88c-3.17,5.47-4.94,14.56-11.17,14.75-7.69.26-9.27-9.47-12.63-15.27Q1490.85,640.14,1164.44,77.37c-12-20.63-23.34-41.59-36-61.81-8.56-13.69-3.58-16,9.84-15.91C1191.75,0,1245.3-.24,1298.81-.24Z"/><path class="cls-2" d="M2554.24,1822.7c-29.76,0-57.4-.3-85,.15-10.75.15-12.07-7.69-14.9-14.7-18.32-45.37-37-90.62-54.72-136.25-4.37-11.24-9.95-15.8-22.43-15.65-56.08.64-112.16.75-168.23-.08-13.61-.19-18.86,5-23.23,17.08-16.22,44.8-34.13,89-50.23,133.8-4.56,12.71-11.13,16.33-24,16q-46.39-1.35-92.81,0c-12.52.38-20.21-4.3-27.49-13.69q-79.59-102.15-159.78-203.82c-13.5-17.2-31.72-23.38-52-18.37-10.71,2.64-7.46,10.75-7.5,17.05-.23,63.16-.11,126.33-.15,189.49,0,33.19,2.11,28.78-29,29-12.9.11-25.87-.87-38.66.27-14.89,1.32-19.91-3.25-19.72-19,.87-75.42.38-150.84.38-226.23,0-81.87.26-163.74-.27-245.57-.07-14.1,2.12-20.59,18.67-20,68.86,2.34,137.87-2.79,206.69,4.11,68.19,6.82,117.32,48.19,126.83,107.74,11.8,74.14-29.72,130.52-109.93,149.11-25.8,6-26,6.11-8.9,27.37q74.27,92.83,148.77,185.47c3.92,4.86,8.33,9.31,14.29,15.91,14.14-32,27.42-61.81,40.43-91.67q84.45-194,168.49-388.09c5.66-13.16,14-14.7,25.68-13.87,11,.79,21.91-3,28.36,12.52Q2446.78,1566.64,2551,1812C2552,1814.25,2552.47,1816.74,2554.24,1822.7Zm-783.59-374c0,31.56.37,63.12-.19,94.65-.23,12.14,3.24,17.57,16.4,16.89,19.27-1,38.65,0,58-.45,55.66-1.43,92.13-30.51,100.5-85.19,10.86-70.82-13.57-136.66-108.45-135.49-15.47.19-31,1-46.35-.38-16.9-1.54-20.7,5.66-20.18,21.08C1771.36,1389.44,1770.65,1419.08,1770.65,1448.69ZM2292,1628.87c24.47,0,49-.49,73.42.22,12.45.38,16.29-2.33,11.13-15-26.74-65.55-53-131.28-79.42-196.93-1.55-3.85-2-9.77-8-9.09-4.45.49-4.91,5.51-6.23,9q-37.78,99.21-75.49,198.43c-3.78,9.81-2.3,13.84,9.27,13.54C2241.73,1628.42,2266.84,1628.83,2292,1628.87Z"/><path class="cls-2" d="M2598.25,1566.8c0-78.67.15-157.3-.19-236,0-11.84.79-19.08,16.1-18.67,70.22,1.93,140.44-1.32,210.69,3.51,120.6,8.3,205.26,88.85,217.78,208.88,4.53,43.48,1.92,86.36-9.46,128.41C3007,1749.35,2926,1811.8,2821.46,1819.23c-68.94,4.91-137.87,2.38-206.81,3.81-14.82.3-16.63-6-16.55-18.36C2598.44,1725.37,2598.25,1646.1,2598.25,1566.8Zm85.56-.53c0,70.25.34,140.55-.3,210.8-.11,14.45,4.26,19,18.74,18.59,29-.79,57.93-.79,86.89-3.43,72.06-6.6,122.37-42.08,145.15-111.43,24.4-74.33,23.6-149.79.9-224.42-21.34-70.18-71.2-106.12-143.11-113.62-29.56-3.1-59.24-1.93-88.85-3-15.31-.57-19.95,4.22-19.76,19.61C2684.23,1428.28,2683.81,1497.26,2683.81,1566.27Z"/><path class="cls-3" d="M429.46,1822.51c-46.91,0-46.87,0-64.48-44.19-14.3-35.87-29-71.62-42.88-107.63-4-10.48-9.47-14.67-21.19-14.56q-86,1-172.12,0c-11-.11-15.76,3.89-19.38,13.73-16,43.48-33.9,86.32-48.8,130.18-6,17.76-14.25,23.83-32.81,22.93-32.69-1.63-32.69-.42-19.68-30.29,67.65-155.21,135.57-310.32,202.43-465.87,7.09-16.45,16.59-18.75,32.2-19.12s20.75,6.86,26,19.34q99.43,236.85,199.71,473.31c9.36,22.14,9.39,22.14-13.87,22.14C446.24,1822.51,437.83,1822.51,429.46,1822.51Zm-218-421.72c-28,74-54.91,144.89-81.84,215.78-4.75,12.52,3.21,12.3,11.69,12.26,48.95-.07,97.94-.49,146.89.23,15.27.22,15.38-4.53,10.4-16.71-26.58-64.9-52.45-130.06-78.7-195.08C218,1412.48,215.19,1408,211.46,1400.79Z"/><path class="cls-3" d="M975.59,1656.4c-27.72,0-55.47.71-83.15-.3-13.69-.53-20.25,3.65-25,17-15.72,44.28-33.41,87.87-49.44,132-4.56,12.56-10.14,18.18-24.66,17.8-38.65-1-38.77-.19-23.68-34.88,66.78-153.52,133.87-306.93,200-460.72,6.83-15.84,15.65-19.38,31.83-19.76,16.82-.41,21.5,7.88,26.89,20.74q100.35,238.61,201.83,476.78c6.45,15.12,3.88,18.63-12,17.73a554.67,554.67,0,0,0-59.93,0c-12.44.64-18.17-4.12-22.59-15.43-17.46-45-36.5-89.45-53.58-134.59-5-13.31-11.88-17.16-25.38-16.67C1029.78,1657.08,1002.67,1656.4,975.59,1656.4ZM971.44,1399c-28.32,74.93-54.45,144.77-81.27,214.38-4.63,12-2.94,15.88,10.41,15.73,48.95-.49,97.9-.68,146.85.07,15.65.23,15.2-5.09,10.37-16.89-21.72-53-42.77-106.2-64.15-159.29C987,1436.43,980.11,1420,971.44,1399Z"/><path class="cls-3" d="M857,1312.55c-17.84,43.52-34.55,84.55-51.48,125.46-51.14,123.77-102.95,247.31-152.92,371.53-7.76,19.27-19.83,17-34.54,18.22-15.5,1.24-20.59-6.23-25.76-19.16Q498,1570.69,402.72,1333.14c-8.18-20.48-8-20.55,14.75-20.59,18.06,0,36.2,1.09,54.11-.38,13.73-1.13,19.12,4.79,23.65,16.52q71.84,186.55,144.39,372.85c2.91,7.46,6,14.82,11.24,27.6,14.22-39.26,26.47-72.82,38.5-106.46,34.66-97,69.58-193.87,103.48-291.16,5.09-14.63,11.43-21.23,27.27-19.23C831.31,1313.68,842.85,1312.55,857,1312.55Z"/><path class="cls-2" d="M3113.75,1567.59c0-78.67.42-157.33-.34-236-.15-15.27,4.08-19.57,19.39-19.45,93.48.67,187,.3,280.49.37,9.73,0,20.36-3.43,20.67,14,.3,18.82-11.43,14.93-21.73,14.93-64.48.12-129,.46-193.45-.26-14.45-.15-18.78,4.07-18.59,18.55q1.13,84.12,0,168.31c-.15,13.57,4,17.65,17.5,17.5,57.4-.65,114.79-.23,172.15-.34,10,0,19-1.36,19.27,14,.34,16.33-9.16,15.23-20,15.2-56.76-.15-113.51.34-170.23-.38-14.18-.19-18.93,3.62-18.74,18.36q1.18,90.92,0,181.85c-.19,15.19,4.14,19.91,19.57,19.72,69-.76,138-.23,207-.45,11.13,0,19.69-.68,19.31,15.53-.38,15.73-9.43,13.69-19.08,13.69-98,0-196-.34-294,.3-15.2.12-19.69-4-19.54-19.45C3114.17,1725,3113.75,1646.25,3113.75,1567.59Z"/><path class="cls-1" d="M1386.45,1581.16c0-74.1-.38-148.2.3-222.3.15-14.44-4-18.93-18.52-18.71-48.94.8-97.93.16-146.92.42-10.07,0-17-.34-17.08-13.92,0-13.16,6-14.29,16.55-14.29q207.83.35,415.62.08c9.61,0,17.19-.57,17.38,13.42.19,14.78-7.66,14.78-18.25,14.71-31.23-.19-146.51-26.06-161.89,11.09-2,4.86-2,10.25-2,15.5q.61,216,.94,432c.15,20.22-5.66,25.87-24.74,23.84-14.67-1.59-29.68-1.17-44.42-.08-13.77,1-17.39-4.15-17.31-17.5C1386.71,1730.65,1386.45,1655.91,1386.45,1581.16Z"/><path class="cls-4" d="M1111.72,1999.49c-8.93,34.69-17.68,68.63-26.39,102.61q-4.08,15.9-8,31.83c-6.33,26-8.11,27-33.45,24.51-7-.68-10.25-3.43-12.18-9.77-17.12-56.68-34.47-113.28-51.4-170-1.13-3.77-6-11.76,3.06-11.69,8.41.08,20.21-6.94,24.89,6.75,4,11.58,7.09,23.42,10.44,35.19,10.64,37.52,21.16,75.08,36.28,112.72,7-27,14.14-54,21-81,4.78-18.7,10.48-37.29,13.46-56.3,2.49-16,10.71-18.18,24.92-18.63,15.47-.49,21,5.17,24.29,19.42,9.35,40.77,20.1,81.23,30.36,121.77,1.39,5.54,3.35,11,6.63,21.61,10.71-37.52,20.07-70.37,29.38-103.18,3.51-12.37,8.45-24.59,10.18-37.22,3-21.68,14.67-25.83,34.77-19.42q-28,90.28-55.85,180.48c-4.67,15.24-17,7.28-26,8.9-8,1.44-12.6-1.58-14.78-10.67-10.71-44.42-22.25-88.62-33.45-132.93C1118.66,2009.56,1118.89,2004.05,1111.72,1999.49Z"/><path class="cls-4" d="M2317.6,2111.91c0-45.29.46-87.61-.26-129.88-.23-12.93,4-16.93,16.48-16,8.26.61,11.35,3.43,11.31,11.54-.15,56.08-.07,112.12-.07,168.19,0,5.92.22,12.75-8.26,12.22-11.92-.75-25.12,5.17-33.53-11-19.57-37.71-40.84-74.51-61.43-111.66-5.2-9.43-10.52-18.78-19.61-27.57v100.8c0,11.62-.41,23.23.12,34.81.49,9.92-1.32,15.27-13.35,15.35-12.52.08-14.94-4.87-14.82-16,.45-51.55,0-103.1.49-154.65.07-7.16-6-19.68,6.33-20.74,12.63-1.06,28-7.66,37.34,10.14,20.36,38.73,41.93,76.86,63.2,115.13C2304.86,2098.48,2306.67,2105.65,2317.6,2111.91Z"/><path class="cls-4" d="M3083.62,2111.76c0-41.71-.19-82.86.15-124,.08-9.62-5.31-22.4,14.14-22,19.65.45,13.24,13.77,13.32,23q.73,74.38,0,148.76c-.08,7.06,5.81,19.28-7.54,20-11.66.64-25.23,6.15-33.75-10-22-41.52-45.18-82.36-68.15-123.35-2.9-5.17-3.81-12.26-13.61-15.58v94.69c0,12.22-.19,24.48.07,36.7.23,10.1,1.17,18.85-14.17,18.59-14.49-.27-13-8.71-13-17.84,0-50.87-.22-101.78.3-152.65.08-7.24-5.69-19.8,6.26-20.93,12.56-1.21,27.76-7.62,37.15,10.29,21.16,40.47,43.63,80.29,66,120.15C3073.44,2102.67,3073.89,2110.4,3083.62,2111.76Z"/><path class="cls-4" d="M561,2062.17v-83c0-6.67-.34-13.23,9.46-12.93,26.29.79,52.8-2.38,78.78,4,44.91,11.09,73,49,70.75,95.34-2.53,51.62-29.08,82-78.18,90.09-21.76,3.58-43.67,1.58-65.47,2.67-11.61.57-16-3.16-15.61-15.19C561.49,2116.24,561,2089.2,561,2062.17Zm27.22-1.25v38.62c0,36.09,0,36.09,36.77,34,40.16-2.3,63-23.94,65.28-61.88,3.43-56.68-34.73-90.2-92-81.64-9.05,1.35-10,6.11-10,13Q588.26,2031.95,588.22,2060.92Z"/><path class="cls-4" d="M2154.16,2062.13c0,78.25-59.31,112.94-124.44,93.67-46.61-13.8-70-65-57.89-120.3,10.6-48.34,50.84-77.42,99.45-71.87C2123.35,1969.59,2154.09,2006.13,2154.16,2062.13Zm-28.88-.64c-.19-35.6-17.91-64.07-44.61-71.62-37.79-10.67-69.92,9.17-79.65,49.22-10.86,44.5,9.43,88,44.8,96a66.3,66.3,0,0,0,7.62,1.13C2096.84,2140.68,2125.5,2110.81,2125.28,2061.49Z"/><path class="cls-4" d="M2609.9,2061.6c0-27,.41-54.11-.19-81.12-.26-11,3.43-14.89,14.37-14.36,23.72,1.17,47.59-1.7,71.2,3.5,47.47,10.52,74.85,46.27,73.49,96.66s-28.73,81.56-78.47,89.52c-22.44,3.58-45,1.62-67.47,2.53-10.4.41-13.23-4-13.08-13.69C2610.16,2117,2609.9,2089.32,2609.9,2061.6Zm52.76,72.1c42.91-.34,65.2-13.91,74.06-45.14,17.42-61.35-24.89-107.7-89.37-98.69-10.83,1.51-9.92,7.89-9.92,14.94q-.12,52.2,0,104.38C2637.39,2133.89,2637.39,2133.89,2662.66,2133.7Z"/><path class="cls-4" d="M180,2062.43c0-26.44.72-52.91-.3-79.31-.53-13.91,4.45-17.87,17.69-17.08,21.83,1.28,43.86-1.32,65.5,3.7,23.16,5.35,35.56,17.91,38.47,40.2,2.67,20.74-5.06,37.1-23.95,46.3-10.11,4.94-8.18,7.21-3.13,16,14.1,24.48,25.57,50.5,38,75.91,1.62,3.32,4.18,8.94-1.4,9.05-9.92.23-22.25,7-28.62-7.58-8-18.29-16.29-36.46-24.48-54.64-2.9-6.48-5.77-13.35-11.91-17.27a37.88,37.88,0,0,0-33.57-3.47c-9.69,3.58-4.56,14.78-4.9,22.55q-1,24.15,0,48.35c.42,10.29-3.62,13.42-13.53,13.31-9.39-.11-14.26-2.15-14.07-12.86C180.38,2117.86,180,2090.15,180,2062.43ZM228.2,2049c7.62-1,15.57-1,22.74-3.32,13.35-4.26,22.06-13.2,21.27-28.35-.76-14.33-9.58-21.39-22.67-25-35.33-9.58-42.65-4.26-42.65,31.53a21.38,21.38,0,0,1,0,3.84C204.06,2044.93,211,2051.91,228.2,2049Z"/><path class="cls-4" d="M1527,2063c0-27.68.49-55.39-.23-83-.3-11.57,4.6-13.87,14.9-14s13.54,3.43,13.23,13.38c-.56,18,.23,36.05-.26,54.08-.26,9.77,2.87,13.88,13.24,13.58,21.87-.61,43.78-.68,65.65,0,10.45.34,13.31-3.65,13-13.42-.56-18,.31-36-.3-54.08-.34-10,2.91-13.69,13.16-13.54,9.77.15,15.43,1.32,15.31,13.43-.52,54.72-.41,109.43-.07,164.15.07,10.52-2.72,15-14.07,14.94-10.9,0-14.78-3.4-14.37-14.45.76-19.27-.6-38.65.49-57.92.76-13.24-4.37-16.37-16.55-15.8-19.27.87-38.65.94-57.92,0-13.17-.68-18.56,3.09-17.65,17,1.09,17.31.34,34.74.22,52.12-.07,9.24,2.91,19.23-13.35,19.16-15-.08-14.63-8-14.51-18.41C1527.15,2114.55,1527,2088.79,1527,2063Z"/><path class="cls-4" d="M517.29,2158c-12.29,3.09-16.29-5.28-20.21-14.93-13.77-33.6-13.92-33.53-50.2-33.53-4.52,0-9.16.68-13.53-.11-31.53-5.66-53,3.16-59.32,37.82-2.87,15.88-17.16,12.29-26.78,10-9-2.11-1.58-9.88.19-14.06,19.23-45.71,38.92-91.19,58.53-136.74,3.81-8.87,8.33-17.5,11.35-26.63,3.28-9.95,8.67-13.87,19.65-13.95,11.69-.11,17,4.34,21.3,14.74,22.48,54.12,45.59,108,68.71,161.78C531.39,2152.56,533.24,2160.25,517.29,2158ZM436.55,1992.4c-12.52,31.07-23.08,57.81-34.17,84.32-3.5,8.41-.3,10.11,7.21,10.07,18-.15,36,0,54,0,5.58,0,11.09-.53,7.88-8.48C460.5,2051.08,449.37,2023.93,436.55,1992.4Z"/><path class="cls-4" d="M2807.73,2062.28c0-26.4.72-52.8-.3-79.16-.53-13.91,4.49-17.57,17.65-17.12,25.72.91,51.47.64,77.23.08,9.88-.23,13.58,2.79,13.65,13.05s-4.75,11.5-13.05,11.35c-18-.38-36,.22-54.07-.23-8.9-.22-13.5,2.64-12.64,12a10.38,10.38,0,0,1,0,1.93c-2.41,42.53-2.41,42.53,39.75,42.53,6.45,0,12.9.46,19.31-.11,9.43-.87,13.84,1.55,13.8,12.41,0,11.73-6.26,11.88-14.74,11.69-14.79-.34-29.64.34-44.43-.23-9.5-.37-13.42,2.08-14,12.67-2.75,50.5-3.09,50.5,47.59,50.5,7.09,0,14.18.34,21.24-.08,8.56-.49,11.16,3.47,11.12,11.54s-1.28,13.43-11.46,13.28c-28.33-.46-56.65-.53-85,0-11.72.22-11.8-6.64-11.72-15C2807.84,2116.36,2807.73,2089.32,2807.73,2062.28Z"/><path class="cls-4" d="M3332,2061.19c0-26.4.37-52.84-.19-79.24-.23-11,2-16.36,14.7-16,26.4.91,52.84.46,79.23.15,8.94-.11,14.45,1.17,14.52,12.37.08,11.66-6.22,12-14.74,11.92q-26.09-.39-52.19,0c-5.32.07-12.94-2-13.28,6.86-.53,14.14-.41,28.32-.15,42.5.15,7.54,6.22,6.94,11.35,6.94,15.46.08,30.93.19,46.39,0,8.26-.11,15.08-.41,15,11.58-.08,11-5.25,12.67-14.37,12.4-15.46-.45-30.92.27-46.39-.26-9.05-.3-11.91,2.87-12.52,12.07-3.35,51.06-3.62,51.06,47.07,51.06,7.09,0,14.18.34,21.27-.08,9.08-.53,12.55,3.09,12.48,12.37s-3.43,12.52-12.56,12.41c-27.68-.38-55.4-.49-83.11.07-10.83.23-13.5-4.82-12.56-14.1a17.57,17.57,0,0,0,0-1.92Q3332,2101.76,3332,2061.19Z"/><path class="cls-4" d="M758.9,2061.19c0-26.44.42-52.88-.19-79.27-.26-11.09,2.12-16.33,14.79-15.88,26.39.94,52.83.49,79.26.15,9.06-.11,14.33,1.43,14.41,12.48.08,11.85-6.49,11.88-14.9,11.77-18.06-.19-36.08,0-54.15,0-6.33,0-11.69.61-11.61,8.94.11,12.9.19,25.79,0,38.69-.12,8.49,5.31,8.94,11.61,8.86,15.46-.11,31,.12,46.42-.07,8.26-.12,15.09-.42,15,11.57-.07,11.05-5.24,12.67-14.37,12.41-15.46-.45-31,.26-46.42-.26-9-.3-13.46,2.64-12.33,12a10.26,10.26,0,0,1,0,1.92c-2.11,49.14-2.11,49.14,46.8,49.17,7.09,0,14.22.34,21.27-.07,9-.49,12.71,2.87,12.59,12.26-.11,9.08-3.2,12.63-12.44,12.52-27.72-.38-55.43-.49-83.15.07-10.79.23-13.62-4.71-12.6-14.07a15.38,15.38,0,0,0,0-1.92Z"/><path class="cls-4" d="M1908,2160.93c-41.67-.57-75.5-13.88-92.85-52.57-17.65-39.33-15.76-78.81,13.35-112.3,28.7-33,67.16-37.22,108.16-29.45,13.84,2.64,13.27,11.69,11.31,21.64-2.75,14.11-10.9,4-15.91,2.64-33-9.09-65.55.3-83.5,24.78-17.68,24.1-19.15,62.07-3.39,87.68,16.63,27,46.72,37.86,82.89,31.67,6.26-1.05,18.14-15.16,21.08,5.24,2.41,16.71-8.18,17.84-19.46,19.12C1922.09,2160.21,1914.36,2160.48,1908,2160.93Z"/><path class="cls-4" d="M3255.24,2160.89c-42.68-.41-76.78-14.21-94.2-53.7-17.12-38.73-15-77.46,13.39-110.45,29.07-33.83,67.92-38.17,109.55-29.83,14.18,2.83,12.33,12.56,10.56,22.06-2.3,12.41-10,3.88-14.63,2.56-33.57-9.5-65.54-1-84,22.82-19.27,25-20.63,63.84-3.17,90.77,16.63,25.68,46.57,35.9,81.79,30,6-1,16.52-15.2,20.82,2.79,3.81,16-5.28,20.55-18.67,21.45C3269.05,2159.91,3261.35,2160.48,3255.24,2160.89Z"/><path class="cls-4" d="M2393.21,2062.54c0-27.68.34-55.36-.15-83-.19-10.07,3.32-13.61,13.39-13.39q38.58.74,77.23,0c9.39-.15,12.11,3.62,12.26,12.56.19,9.73-4.11,12-12.82,11.8-16.07-.41-32.21.38-48.27-.22-11-.42-14.07,4.22-14.49,14.74-1.69,41.86-2,41.82,39,41.82,7.09,0,14.18.42,21.23-.07,9.13-.64,12.29,3,12.29,12.22,0,9.76-4.33,11.95-12.89,11.76-15.43-.38-30.93.38-46.31-.22-10.22-.42-13.46,3.54-13.2,13.46.57,20.59-.34,41.18.34,61.77.38,10.75-4.26,12.86-13.77,12.74s-15.12-2.22-13.84-12.89a15.54,15.54,0,0,0,0-1.93C2393.21,2116.58,2393.21,2089.58,2393.21,2062.54Z"/><path class="cls-4" d="M1404.44,2073.63c0-22.51-.42-45.06.15-67.58.3-11.46-3.47-16.63-15.5-15.8-10.9.72-21.87-.26-32.81.27-9,.41-12.45-2.87-12.37-12.19s3.66-12.21,12.6-12.14c41.18.3,82.36.38,123.54,0,10.14-.11,11.27,4.91,11.38,13.13s-2.52,12.14-11,11.12a11.19,11.19,0,0,0-1.92,0c-14.63,1.06-33.86-6.37-42.8,3.09-10.33,11-3.28,30.7-3.58,46.62-.57,34.09-.49,68.21,0,102.3.15,10.94-2,16.33-14.67,16.26-12.37,0-13.32-5.92-13.16-15.54C1404.7,2119.94,1404.47,2096.78,1404.44,2073.63Z"/><path class="cls-4" d="M65.67,2074.76c0-20.59-1.29-41.25.37-61.69,1.55-19.27-6-25.27-23.94-22.82-7.58,1-15.43-.15-23.12.27-8.33.41-13.12-1.36-13.2-11.43-.08-10.48,4.22-13,13.84-12.94q59.79.57,119.62,0c9.58-.07,13.65,2.23,13.84,12.79.22,12-6.45,11.54-14.71,11.58-14.1.07-33.15-4.64-41.07,2.56-10.44,9.5-3.35,29.15-3.62,44.39-.56,35.37-.45,70.74,0,106.08.15,10.33-2.22,15.08-13.8,15-10.86-.07-14.71-3.32-14.4-14.37C66.16,2121.07,65.7,2097.92,65.67,2074.76Z"/><path class="cls-4" d="M2534.33,2061.56c0-27,.37-53.92-.19-80.89-.23-10.52,2.6-14.67,13.91-14.74,11.73-.08,13.81,4.9,13.73,15q-.51,81.84,0,163.7c0,9.54-2.41,13.88-12.93,13.88s-15-2.87-14.71-14.14C2534.78,2116.77,2534.33,2089.17,2534.33,2061.56Z"/><path class="cls-4" d="M1310,2062.77c0,27.08-.42,54.19.19,81.23.26,11-3.32,14.67-14.37,14.52-10.26-.15-13.31-3.85-13.24-13.73q.51-82.18,0-164.42c-.07-11,3.51-14.29,14.45-14.48,12.44-.23,13.23,6.07,13.12,15.61C1309.78,2008.58,1310,2035.69,1310,2062.77Z"/></svg>