<svg width="150" height="55" viewBox="0 0 150 55" fill="none" xmlns="http://www.w3.org/2000/svg"> <path d="M24.2224 45.126H25.7236L30.662 51.8382L30.6625 45.126H32.2557V54.8338H30.8995L25.8161 47.9271L25.8156 54.8338H24.2219L24.2224 45.126Z" fill="#00827E"/> <path d="M34.5736 52.1711V47.5114H36.1673L36.1668 51.6719C36.1668 52.8091 36.7064 53.4471 37.6552 53.4471C38.5771 53.4471 39.2222 52.7813 39.2222 51.6442V47.5114H40.8287V54.8338H39.2222V53.6967C38.774 54.3903 38.129 54.9861 37.0487 54.9861C35.4817 54.9861 34.5736 53.8768 34.5736 52.1711Z" fill="#00827E"/> <path d="M43.0279 47.5114H44.6216L44.6211 48.6207C45.0692 47.9688 45.6751 47.3586 46.7416 47.3586C47.7427 47.3586 48.454 47.8721 48.822 48.6485C49.3755 47.8721 50.113 47.3586 51.1665 47.3586C52.6811 47.3586 53.6031 48.3712 53.6031 50.1602V54.8338H52.0094V50.6732C52.0094 49.5083 51.496 48.8842 50.6002 48.8842C49.7311 48.8842 49.1118 49.5222 49.1118 50.701V54.8338H47.5181V50.6593C47.5181 49.5222 46.9918 48.8842 46.1094 48.8842C45.227 48.8842 44.6211 49.5778 44.6211 50.701V54.8338H43.0278V47.5114H43.0279Z" fill="#00827E"/> <path d="M57.3425 53.6967V54.8338H55.7488V44.7097H57.3425V48.7319C57.8559 47.9688 58.5806 47.3586 59.7128 47.3586C61.3461 47.3586 62.9398 48.718 62.9398 51.1584V51.1862C62.9398 53.6133 61.3589 54.9861 59.7128 54.9861C58.5539 54.9861 57.8292 54.3764 57.3425 53.6967V53.6967ZM61.3194 51.1862V51.1584C61.3194 49.744 60.4112 48.8147 59.3309 48.8147C58.2507 48.8147 57.3029 49.7579 57.3029 51.1584V51.1862C57.3029 52.5873 58.2507 53.53 59.3309 53.53C60.4241 53.53 61.3194 52.6285 61.3194 51.1862Z" fill="#00827E"/> <path d="M64.4138 51.2001V51.1723C64.4138 49.0782 65.8235 47.3586 67.8119 47.3586C70.0244 47.3586 71.1438 49.1893 71.1438 51.2974C71.1438 51.4497 71.1304 51.6025 71.1171 51.7687H66.0075C66.1786 52.9614 66.9819 53.6272 68.0093 53.6272C68.7863 53.6272 69.3393 53.3221 69.8923 52.7535L70.8272 53.6272C70.1693 54.4592 69.2602 55 67.9831 55C65.9679 55 64.4138 53.461 64.4138 51.2001H64.4138ZM69.5629 50.6593C69.4581 49.5778 68.8521 48.7319 67.7986 48.7319C66.8236 48.7319 66.1391 49.5222 65.9946 50.6593H69.5629Z" fill="#00827E"/> <path d="M72.961 47.5114H74.5543L74.5538 49.1615C74.989 48.0661 75.7923 47.3169 77.017 47.3725V49.1476H76.9245C75.5287 49.1476 74.5538 50.1047 74.5538 52.046V54.8338H72.9606L72.961 47.5114Z" fill="#00827E"/> <path d="M78.0439 53.8768L78.7552 52.7396C79.5189 53.336 80.3222 53.6411 81.0334 53.6411C81.718 53.6411 82.1137 53.336 82.1137 52.8508V52.823C82.1137 52.2544 81.3757 52.0599 80.5596 51.7965C79.5317 51.4914 78.3862 51.0478 78.3862 49.6472V49.6194C78.3867 48.2323 79.4798 47.3864 80.8623 47.3864C81.7319 47.3864 82.6796 47.7054 83.4176 48.2184L82.7849 49.4111C82.1137 48.9814 81.4024 48.718 80.8227 48.718C80.2034 48.718 79.8483 49.0231 79.8483 49.4389V49.4666C79.8483 50.0074 80.5992 50.2297 81.4153 50.507C82.4293 50.8399 83.5749 51.3252 83.5749 52.6424V52.6702C83.5749 54.2097 82.4426 54.9727 80.9939 54.9727C80.0066 54.9727 78.9134 54.5981 78.0439 53.8768V53.8768Z" fill="#00827E"/> <path d="M89.7642 45.126H93.8731C95.032 45.126 95.9407 45.4867 96.5333 46.0969C97.021 46.6238 97.2975 47.3447 97.2975 48.1906V48.2184C97.297 49.8134 96.3883 50.7705 95.1107 51.1584L97.5997 54.8338H95.6775L93.4121 51.4497H91.3841V54.8338H89.7637L89.7642 45.126V45.126ZM93.7544 49.9385C94.9133 49.9385 95.6508 49.3004 95.6508 48.3156V48.2878C95.6508 47.2479 94.94 46.6794 93.7415 46.6794H91.3841V49.9385H93.7544Z" fill="#00827E"/> <path d="M99.233 52.1711V47.5114H100.827L100.826 51.6719C100.826 52.8091 101.366 53.4471 102.315 53.4471C103.237 53.4471 103.882 52.7813 103.882 51.6442V47.5114H105.488V54.8338H103.882V53.6967C103.433 54.3903 102.788 54.9861 101.708 54.9861C100.141 54.9861 99.233 53.8768 99.233 52.1711Z" fill="#00827E"/> <path d="M107.779 44.7097H109.373V54.8338H107.779V44.7097Z" fill="#00827E"/> <path d="M111.282 51.2001V51.1723C111.282 49.0782 112.691 47.3586 114.68 47.3586C116.892 47.3586 118.012 49.1893 118.012 51.2974C118.012 51.4497 117.998 51.6025 117.985 51.7687H112.876C113.047 52.9614 113.85 53.6272 114.877 53.6272C115.655 53.6272 116.208 53.3221 116.761 52.7535L117.696 53.6272C117.038 54.4592 116.129 55 114.851 55C112.836 55 111.282 53.461 111.282 51.2001ZM116.431 50.6593C116.326 49.5778 115.72 48.7319 114.666 48.7319C113.692 48.7319 113.007 49.5222 112.862 50.6593H116.431Z" fill="#00827E"/> <path d="M139.212 16.175C138.661 15.556 138.303 14.8668 138.079 14.1442C137.857 13.3869 137.771 11.5633 137.771 8.68959C137.771 6.14209 137.479 4.31933 136.946 3.19861C136.45 2.06377 135.576 1.25512 134.392 0.755985C133.207 0.257267 131.547 0 129.346 0H128.267V4.78826C129.982 4.78826 131.047 4.92568 131.459 5.16668C131.854 5.42438 132.144 5.7992 132.229 6.14209C132.349 6.48626 132.494 7.45819 132.539 10.1515C132.578 12.5443 132.727 14.1442 132.882 14.9879C133.036 15.8646 133.361 16.657 133.828 17.4147C134.289 18.1373 135.112 18.8766 136.263 19.6673C135.164 20.288 134.357 21.0444 133.86 21.8877C133.361 22.7674 133.019 23.6784 132.832 24.6762C132.677 25.6578 132.633 27.8951 132.453 31.3873C132.389 32.6258 132.196 33.4335 131.8 33.8145C131.354 34.2075 130.187 34.5275 128.267 34.5275V39.3204H129.384C131.27 39.3204 132.727 39.1496 133.757 38.8401C134.801 38.4775 135.644 37.9442 136.296 37.2027C136.946 36.4455 137.357 35.4985 137.513 34.3988C137.667 33.2785 137.771 31.5602 137.771 29.2717C137.771 26.2597 138.149 24.2953 138.886 23.4374C139.64 22.5436 140.741 22.1125 142.234 22.1125V17.1896C140.741 17.1223 139.745 16.8107 139.212 16.175" fill="#00827E"/> <path d="M3.02207 23.1454C3.57263 23.7644 3.93072 24.4537 4.15478 25.1763C4.37713 25.9335 4.46334 27.7571 4.46334 30.6308C4.46334 33.1783 4.75484 35.0011 5.28832 36.1218C5.78425 37.2567 6.65831 38.0653 7.84179 38.5645C9.02697 39.0632 10.6876 39.3204 12.8885 39.3204H13.9675V34.5322C12.2522 34.5322 11.1869 34.3948 10.7751 34.1538C10.3799 33.8961 10.0901 33.5212 10.0047 33.1783C9.88481 32.8342 9.73988 31.8622 9.69531 29.169C9.65572 26.7762 9.5071 25.1762 9.35217 24.3325C9.19768 23.4558 8.8729 22.6634 8.40642 21.9057C7.94506 21.1831 7.12179 20.4438 5.9716 19.6532C7.06972 19.0324 7.8772 18.276 8.37441 17.4327C8.8729 16.553 9.21518 15.642 9.40253 14.6442C9.55703 13.6626 9.60149 11.4254 9.78152 7.93318C9.84537 6.69469 10.038 5.88696 10.4341 5.50596C10.8796 5.11299 12.0469 4.79298 13.9674 4.79298V0H12.8505C10.9637 0 9.50709 0.170812 8.47683 0.480309C7.43292 0.8429 6.59001 1.37627 5.93831 2.11772C5.28832 2.87499 4.87689 3.8219 4.72112 4.92164C4.56705 6.04193 4.46333 7.76025 4.46333 10.0488C4.46333 13.0607 4.08478 15.0252 3.34814 15.8831C2.59401 16.7769 1.49334 17.208 0 17.208V22.1309C1.49334 22.1981 2.48902 22.5097 3.02207 23.1454" fill="#00827E"/> <path d="M75.4925 31.3366C68.8253 31.3366 63.4009 25.8957 63.4009 19.2083C63.4009 12.5206 68.8253 7.0799 75.4925 7.0799C82.1598 7.0799 87.5843 12.5206 87.5843 19.2083C87.5843 19.6793 87.5795 19.8228 87.5287 20.2721L87.5143 20.4L70.5512 20.8902V20.5429L72.0615 20.0289C75.8853 18.7294 81.6345 16.776 82.1215 16.3207C81.1407 13.7136 78.481 11.9643 75.4925 11.9643C71.5102 11.9643 68.2707 15.2139 68.2707 19.2083C68.2707 23.2024 71.5102 26.4518 75.4925 26.4518C78.05 26.4518 80.3648 25.1383 81.6848 22.9379L81.7278 22.8661H87.0226L86.9575 23.0613C85.3045 28.0109 80.6971 31.3366 75.4925 31.3366Z" fill="#002A3A"/> <path d="M27.4932 31.3366C20.8258 31.3366 15.4015 25.8957 15.4015 19.2083C15.4015 12.5206 20.8258 7.0799 27.4932 7.0799C34.1606 7.0799 39.5848 12.5206 39.5848 19.2083C39.5848 19.6803 39.58 19.8238 39.5294 20.2721L39.5149 20.4L22.5521 20.8902L22.5517 20.5429L24.0606 20.0297C27.885 18.7299 33.635 16.7759 34.1222 16.3207C33.1413 13.7136 30.4816 11.9643 27.4932 11.9643C23.5109 11.9643 20.2713 15.2139 20.2713 19.2083C20.2713 23.2023 23.5109 26.4518 27.4932 26.4518C30.0506 26.4518 32.3653 25.1383 33.6855 22.9379L33.7286 22.8661H39.0233L38.958 23.0613C37.3052 28.0109 32.6977 31.3366 27.4932 31.3366" fill="#002A3A"/> <path d="M51.9044 20.9551L45.6512 7.87003H38.4814L51.5809 31.3365H51.8503L64.3567 7.87003H57.6185L51.9044 20.9551Z" fill="#002A3A"/> <path d="M120.512 31.4644C118.288 31.4644 116.921 30.7757 115.473 29.4175C114.01 28.066 113.267 26.2924 113.267 24.1461L113.286 12.7004H109.23V7.91763H113.308L118.341 0.106598H118.69L118.709 7.91763H125.444V12.7004H118.709L118.69 23.4209C118.69 25.4766 119.344 26.6554 121.059 26.6554C122.247 26.6554 123.325 26.2848 124.016 25.5224L124.045 25.4906L126.805 28.2592L126.786 28.2875C125.282 30.5142 123.29 31.4644 120.512 31.4644Z" fill="#002A3A"/> <path d="M98.3111 31.288C95.0777 31.2982 91.6469 30.122 89.5499 27.726L92.0079 24.4208C97.1852 29.9847 105.112 25.9873 100.693 22.3761C99.7324 21.7195 97.5073 21.0583 96.579 20.8008C93.2806 19.7638 90.7384 17.636 90.5556 14.3119C90.5643 11.6972 91.9165 9.40474 94.3238 8.14847C98.0914 6.29775 103.66 6.95406 106.961 9.56633L104.717 13.0737C102.926 11.4394 99.5971 10.3405 97.5179 11.7692C96.0129 12.8137 95.6591 14.6715 97.353 15.6535C99.459 17.0485 104.273 17.6414 106.031 19.5249C107.021 20.5363 107.523 21.8769 107.523 23.5093C107.463 28.5261 103.521 31.3859 98.3111 31.288L98.3111 31.288Z" fill="#002A3A"/> <path d="M143.417 39.2353C143.376 39.2353 143.355 39.2144 143.355 39.1725V35.6647C143.355 35.6395 143.342 35.6267 143.317 35.6267H142.202C142.16 35.6267 142.139 35.6058 142.139 35.5635V35.0176C142.139 34.9753 142.16 34.9544 142.202 34.9544H145.248C145.289 34.9544 145.31 34.9753 145.31 35.0176V35.5635C145.31 35.6058 145.289 35.6267 145.248 35.6267H144.132C144.107 35.6267 144.094 35.6395 144.094 35.6647V39.1725C144.094 39.2144 144.074 39.2353 144.032 39.2353H143.417Z" fill="#002A3A"/> <path d="M146.202 35.0235C146.202 34.9817 146.223 34.9603 146.265 34.9603H146.823C146.877 34.9603 146.913 34.9817 146.929 35.0235L148.101 37.6572H148.126L149.28 35.0235C149.296 34.9817 149.331 34.9603 149.386 34.9603H149.937C149.979 34.9603 150 34.9817 150 35.0235V39.1725C150 39.2143 149.979 39.2352 149.937 39.2352H149.392C149.351 39.2352 149.33 39.2143 149.33 39.1725V36.5572H149.305L148.402 38.5689C148.377 38.6236 148.337 38.6505 148.283 38.6505H147.919C147.865 38.6505 147.825 38.6236 147.8 38.5689L146.898 36.5572H146.873V39.1725C146.873 39.2143 146.852 39.2352 146.81 39.2352H146.265C146.223 39.2352 146.202 39.2143 146.202 39.1725V35.0235Z" fill="#002A3A"/> </svg>