<svg xmlns="http://www.w3.org/2000/svg" viewBox="0 0 367.56 203.38"><defs><style>.cls-1{fill:#ffcf01;}</style></defs><g id="Layer_2" data-name="Layer 2"><g id="Layer_1-2" data-name="Layer 1"><path class="cls-1" d="M253.59,57.28,329.32,0H291.7L234.78,43.6l-15.06-9.89H184l32.49,24.06L191.3,79c-12.83,10.87-30.8,26.07-57.43,26.07-10.5,0-25.38-2.37-33.69-11.54L222.94,0H148.67C103.24,0,80,26.26,80,58.75c0,6.71,1.47,15.14,3.18,19L32.28,115.54h39L94.81,97.71c8.55,10.62,26.75,20.52,46,20.62,31.75.27,60.41-20.86,70.6-28.93l23.09-18.32,60.21,44.46h42.12ZM88.7,73.65C88,71.82,87.24,65,87.24,61c0-21.74,15.26-40.55,55.32-40.55h21s-4.74,2.07-15.15,9.77S88.7,73.65,88.7,73.65"/><polygon points="90.44 164.53 101.36 149.01 118.56 149.01 98.98 174.92 119.42 202.02 101.79 202.02 90.11 185.5 78.43 202.02 61.23 202.02 81.57 175.12 61.99 149.01 79.62 149.01 90.44 164.53"/><path d="M268.49,196.31l4.16-11.62c5.87,4.18,14.48,6.87,19.55,6.87,4.45,0,6.48-1.59,6.48-4v-.2c0-3.29-5.27-4.39-11.24-6.18-7.6-2.19-16.21-5.68-16.21-16V165c0-10.86,8.91-16.94,19.85-16.94,6.89,0,13,1.43,18.88,5.31l-3.14,11.32c-5.37-3.08-12.09-5-16-5-3.75,0-5.67,1.6-5.67,3.69v.2c0,3,5.16,4.39,11,6.38,7.6,2.49,16.41,6.08,16.41,15.84v.2c0,11.86-9,17.24-20.77,17.24-7.6,0-16.11-1.33-23.3-6.91"/><path d="M323.5,196.31l4.15-11.62c5.88,4.18,14.49,6.87,19.55,6.87,4.46,0,6.49-1.59,6.49-4v-.2c0-3.29-5.27-4.39-11.25-6.18-7.6-2.19-16.2-5.68-16.2-16V165c0-10.86,8.91-16.94,19.85-16.94,6.89,0,13,1.43,18.88,5.31l-3.15,11.32c-5.37-3.08-12.09-5-16-5-3.75,0-5.68,1.6-5.68,3.69v.2c0,3,5.17,4.39,11,6.38,7.6,2.49,16.41,6.08,16.41,15.84v.2c0,11.86-9,17.24-20.76,17.24-7.6,0-16.11-1.33-23.3-6.91"/><path d="M133.68,149h15.84v8.61c3.12-3.42,8.16-9.47,17.3-9.47,11.53,0,18.37,6.17,18.37,22.8V202H169.92V172.15c0-6.46-3-10.32-7.63-10.32-5.35,0-9.94,3.25-12.77,6.88V202H133.68Z"/><path d="M52.89,188.16c-1.56,3.85-6.66,15.22-24.79,15.22-8.41,0-14.77-2.4-19.93-7.33C2.4,190.65,0,183.92,0,175.76c0-10.33,4.2-16.69,7.92-20.42,6.13-6,13.34-7.32,19.58-7.32,10.57,0,16.69,4.2,20.29,8.52C53.32,163.14,54,171.31,54,177v1.2H15.13a15.28,15.28,0,0,0,2.52,8.76c1.56,2.17,4.8,4.93,10.45,4.93A13.42,13.42,0,0,0,40.23,185ZM40.23,168.79a12.25,12.25,0,0,0-12.37-10.44,12.24,12.24,0,0,0-12.25,10.44Z"/><path d="M253.73,188.16c-1.56,3.85-6.67,15.22-24.8,15.22-8.4,0-14.77-2.4-19.93-7.33-5.77-5.4-8.17-12.13-8.17-20.29,0-10.33,4.2-16.69,7.93-20.42,6.13-6,13.33-7.32,19.57-7.32,10.57,0,16.69,4.2,20.3,8.52,5.52,6.6,6.24,14.77,6.24,20.42v1.2H216a15.28,15.28,0,0,0,2.52,8.76c1.56,2.17,4.8,4.93,10.44,4.93A13.4,13.4,0,0,0,241.06,185Zm-12.67-19.37a12.47,12.47,0,0,0-24.61,0Z"/></g></g></svg>