<?xml version="1.0" encoding="utf-8"?><svg version="1.1" id="Layer_1" xmlns="http://www.w3.org/2000/svg" xmlns:xlink="http://www.w3.org/1999/xlink" x="0px" y="0px" viewBox="0 0 1191.3 472.9" style="enable-background:new 0 0 1191.3 472.9;" xml:space="preserve"><style type="text/css">.st0{fill:#DBAD60;}</style><path d="M155.3,295.2H94.5v69.8H38.8V178.6h134.8v44.4h-79v30.3h60.8V295.2z"/><path d="M240.9,223.2v141.7h-54.5V223.2H240.9z"/><path d="M389.9,364.9h-54.5v-87.4c0-7.2-1.1-11.8-3.3-13.8c-2.2-2-5-3-8.4-3c-9.9,0-14.9,6.9-14.9,20.8v83.4h-54.5V226.1h50.5v19.7c7.5-15,20.8-22.5,40-22.5c10.1,0,18.6,1.9,25.6,5.8c7,3.9,11.9,8.9,14.9,15c3,6.1,4.5,16.8,4.5,32V364.9z"/><path d="M546.1,408.8h-53.7V350c-5.9,11.8-16.8,17.7-32.8,17.7c-17.9,0-31.8-6.7-41.6-20.1c-9.8-13.4-14.7-30.6-14.7-51.7c0-20.1,5.1-37.3,15.4-51.5c10.3-14.2,25.7-21.3,46.1-21.3c20,0,34,7.2,42,21.7c3.7-6.4,6.7-12.7,9-18.8h31.5c-0.9,4.2-1.4,10.5-1.4,18.8V408.8z M492.5,277c0-7-1.5-12.4-4.6-16.2c-3.1-3.8-6.7-5.7-10.8-5.7c-5.8,0-10.3,2.9-13.4,8.6c-3.1,5.7-4.6,16.4-4.6,32.1c0,15.7,1.5,26.2,4.6,31.3c3,5.1,7.1,7.6,12.2,7.6c4,0,7.8-1.5,11.3-4.6c3.6-3.1,5.3-8.4,5.3-15.8V277z"/><path d="M718.4,308.9l46.4,4c-2.2,16.2-9,29.4-20.4,39.6c-11.4,10.2-26.6,15.3-45.5,15.3c-21.2,0-38.4-6.7-51.7-20c-13.2-13.3-19.9-30.4-19.9-51.3c0-21.3,6.6-38.8,19.7-52.6c13.2-13.8,30.2-20.7,51.3-20.7c18.7,0,33.9,5.2,45.6,15.6c11.7,10.4,18.5,23.6,20.2,39.5l-47.6,4c-2-14.7-7.6-22-16.7-22c-5.8,0-10.1,2.7-12.8,8c-2.7,5.3-4,14.6-4,27.8c0,11.4,1.3,19.8,4,25.3c2.7,5.5,7.3,8.2,14,8.2C710.8,329.6,716.6,322.7,718.4,308.9z"/><path d="M851.2,367.8c-23,0-41.3-7.2-54.9-21.5C782.8,332,776,315.1,776,295.8c0-20.8,7.1-38,21.2-51.9c14.2-13.8,32.6-20.8,55.2-20.8c22.8,0,41.2,6.8,55.1,20.5c13.9,13.7,20.8,30.8,20.8,51.3c0,20.8-7,38.1-21.1,51.9C893.2,360.9,874.5,367.8,851.2,367.8z M852,334.8c8.5,0,13.6-4.4,15.5-13.2c1.9-8.8,2.8-18,2.8-27.5c0-13-1.3-22.4-4-28.1c-2.6-5.7-7.4-8.6-14.2-8.6c-6.3,0-10.9,3-13.8,8.9c-2.9,5.9-4.4,15.7-4.4,29.2c0,15.9,1.5,26.5,4.5,31.6C841.5,332.2,846,334.8,852,334.8z"/><path d="M1152.4,364.9h-52.8v-86.8c0-5.8-0.8-9.9-2.5-12.2c-1.7-2.3-4.7-3.5-8.9-3.5c-10.2,0-15.3,7.4-15.3,22.3v80.3h-52.3v-86.8c0-11.1-4.3-16.7-12.8-16.7c-8.8,0-13.2,5.6-13.2,16.7v86.8h-52.4V226.1h48.9v18.7c8.7-14.4,21.4-21.6,38.1-21.6c17.9,0,30.9,7.2,39,21.6c9-14.4,22.8-21.6,41.5-21.6c8.9,0,16.8,1.9,23.5,5.6c6.8,3.7,11.7,8.5,14.7,14.4c3,5.9,4.6,14.9,4.6,27.2V364.9z"/><circle class="st0" cx="587.7" cy="340" r="24.9"/><circle class="st0" cx="213" cy="185.6" r="24.9"/><g><path class="st0" d="M216.1,142.9c13.4-9.8,28-17.9,42.8-25.3c14.9-7.4,30.3-13.8,45.9-19.5c15.6-5.8,31.5-10.7,47.6-15.1c8-2.2,16.1-4.2,24.2-6c8.1-1.8,16.3-3.5,24.5-5c8.2-1.5,16.4-2.9,24.6-4.2c8.2-1.3,16.5-2.3,24.8-3.3c16.6-1.9,33.2-3.2,49.8-4.1l12.5-0.5c4.2-0.1,8.3-0.3,12.5-0.3c8.3-0.1,16.7-0.2,25-0.1c16.7,0.2,33.3,0.8,49.9,1.9c4.2,0.2,8.3,0.6,12.5,0.9l6.2,0.5l6.2,0.6c8.3,0.8,16.6,1.8,24.9,2.8c16.5,2.2,33,5,49.3,8.3c8.2,1.7,16.3,3.6,24.4,5.6c4.1,1,8.1,2.1,12.1,3.1c4,1.1,8,2.2,12,3.4c16,4.7,31.9,9.9,47.4,15.9c15.6,6,30.9,12.5,45.9,19.8c15,7.3,29.7,15.2,44,23.7c14.3,8.6,28.1,17.8,41.5,27.8c13.3,10,26.2,20.6,37.7,32.5c-6.1-5.6-12.6-10.7-19.2-15.7c-6.6-5-13.3-9.8-20.2-14.4c-13.7-9.2-27.8-17.8-42.3-25.7c-14.4-8-29.2-15.3-44.3-22c-15-6.7-30.3-12.9-45.8-18.4c-15.5-5.5-31.2-10.5-47.1-14.8c-15.9-4.4-31.9-8.1-48-11.3c-16.1-3.2-32.4-5.9-48.7-8c-16.3-2.1-32.7-3.5-49.2-4.6c-65.8-4.4-132-2.5-197.1,8.2c-32.5,5.4-64.7,12.8-96.1,23.1c-7.8,2.5-15.6,5.3-23.4,8.2c-7.7,2.9-15.4,6-22.9,9.3c-7.6,3.3-15,6.8-22.4,10.6C230.3,134.3,223,138.3,216.1,142.9z"/></g></svg>